<svg xmlns="http://www.w3.org/2000/svg" width="15.75" height="18" viewBox="0 0 15.75 18"><defs><style>.a{fill:#474747;}</style></defs><path class="a" d="M4.746-4.184A4.718,4.718,0,0,1,7-2.5,4.455,4.455,0,0,1,7.875.211v1.2a.814.814,0,0,1-.246.6.849.849,0,0,1-1.2,0,.814.814,0,0,1-.246-.6V.211a2.906,2.906,0,0,0-.9-2.127,2.906,2.906,0,0,0-2.127-.9H2.707A6.751,6.751,0,0,1,0-2.25a6.751,6.751,0,0,1-2.707-.562h-.457a2.906,2.906,0,0,0-2.127.9,2.906,2.906,0,0,0-.9,2.127v1.2a.814.814,0,0,1-.246.6.814.814,0,0,1-.6.246A.814.814,0,0,1-7.629,2a.814.814,0,0,1-.246-.6V.211A4.455,4.455,0,0,1-7-2.5a4.718,4.718,0,0,1,2.25-1.687A6.831,6.831,0,0,1-6.363-6.75H-6.75a.548.548,0,0,1-.4-.158.548.548,0,0,1-.158-.4v-3.375a.547.547,0,0,1,.158-.4.548.548,0,0,1,.4-.158h.387A6.607,6.607,0,0,1-3.92-14.5,6.563,6.563,0,0,1,0-15.75,6.563,6.563,0,0,1,3.92-14.5,6.607,6.607,0,0,1,6.363-11.25H6.75a.547.547,0,0,1,.4.158.548.548,0,0,1,.158.4v3.375a.548.548,0,0,1-.158.4.548.548,0,0,1-.4.158H6.363A6.831,6.831,0,0,1,4.746-4.184ZM0-3.937a4.886,4.886,0,0,0,2.531-.686A5.159,5.159,0,0,0,4.377-6.469,4.886,4.886,0,0,0,5.063-9a4.886,4.886,0,0,0-.686-2.531,5.159,5.159,0,0,0-1.846-1.846A4.886,4.886,0,0,0,0-14.062a4.886,4.886,0,0,0-2.531.686,5.159,5.159,0,0,0-1.846,1.846A4.886,4.886,0,0,0-5.062-9a4.886,4.886,0,0,0,.686,2.531A5.159,5.159,0,0,0-2.531-4.623,4.886,4.886,0,0,0,0-3.937ZM2.813-1.125A1.081,1.081,0,0,1,3.6-.791,1.081,1.081,0,0,1,3.938,0V2.25H-1.125V.563a.548.548,0,0,0-.158-.4A.548.548,0,0,0-1.687,0a.548.548,0,0,0-.4.158.548.548,0,0,0-.158.4V2.25H-3.937V0A1.081,1.081,0,0,1-3.6-.791a1.081,1.081,0,0,1,.791-.334ZM1.688,1.125A.542.542,0,0,0,2.25.563.542.542,0,0,0,1.688,0a.542.542,0,0,0-.562.563.542.542,0,0,0,.563.563ZM2.25-11.25a1.627,1.627,0,0,1,1.2.492,1.627,1.627,0,0,1,.492,1.2V-9a3.255,3.255,0,0,1-.984,2.391,3.255,3.255,0,0,1-2.391.984H-.562a3.255,3.255,0,0,1-2.391-.984A3.255,3.255,0,0,1-3.937-9v-.562a1.627,1.627,0,0,1,.492-1.2,1.627,1.627,0,0,1,1.2-.492ZM-.7-8.016.563-8.437-.7-8.859l-.422-1.266-.422,1.266-1.266.422,1.266.422.422,1.266Z" transform="translate(7.875 15.75)"/></svg>