<svg xmlns="http://www.w3.org/2000/svg" width="17.5" height="20" viewBox="0 0 17.5 20"><defs><style>.a{fill:#f94141;}</style></defs><path class="a" d="M7.5-10.156a.452.452,0,0,0-.137-.332.452.452,0,0,0-.332-.137H6.094a.452.452,0,0,0-.332.137.452.452,0,0,0-.137.332v8.438a.452.452,0,0,0,.137.332.452.452,0,0,0,.332.137h.938a.452.452,0,0,0,.332-.137A.452.452,0,0,0,7.5-1.719Zm3.906-.469a.452.452,0,0,1,.332.137.452.452,0,0,1,.137.332v8.438a.452.452,0,0,1-.137.332.452.452,0,0,1-.332.137h-.937a.452.452,0,0,1-.332-.137A.452.452,0,0,1,10-1.719v-8.437a.452.452,0,0,1,.137-.332.452.452,0,0,1,.332-.137Zm5.156-3.75H13.672L12.344-16.6a1.907,1.907,0,0,0-.7-.664A1.926,1.926,0,0,0,10.7-17.5H6.8a1.926,1.926,0,0,0-.937.234,1.907,1.907,0,0,0-.7.664L3.828-14.375H.938a.9.9,0,0,0-.664.273A.9.9,0,0,0,0-13.437v.469a.452.452,0,0,0,.137.332.452.452,0,0,0,.332.137H1.25V.625A1.808,1.808,0,0,0,1.8,1.953,1.808,1.808,0,0,0,3.125,2.5h11.25A1.808,1.808,0,0,0,15.7,1.953,1.808,1.808,0,0,0,16.25.625V-12.5h.781a.452.452,0,0,0,.332-.137.452.452,0,0,0,.137-.332v-.469a.9.9,0,0,0-.273-.664A.9.9,0,0,0,16.563-14.375Zm-10.547,0,.7-1.133a.23.23,0,0,1,.2-.117h3.672a.23.23,0,0,1,.2.117l.7,1.133ZM14.375-12.5V.391A.225.225,0,0,1,14.3.547a.225.225,0,0,1-.156.078H3.359A.225.225,0,0,1,3.2.547.225.225,0,0,1,3.125.391V-12.5Z" transform="translate(0 17.5)"/></svg>