<svg xmlns="http://www.w3.org/2000/svg" width="25" height="20.006" viewBox="0 0 25 20.006"><defs><style>.a{fill:#474747;}</style></defs><path class="a" d="M14.023-.586l5.391-5.391,2.813,2.813L16.836,2.227,14.453,2.5a.621.621,0,0,1-.7-.7Zm10.7-6.406A.9.9,0,0,1,25-6.328a.9.9,0,0,1-.273.664l-1.641,1.6L20.313-6.836l1.6-1.641a.9.9,0,0,1,.664-.273.9.9,0,0,1,.664.273ZM8.75-6.25a5.429,5.429,0,0,1-2.812-.762A5.733,5.733,0,0,1,3.887-9.062a5.429,5.429,0,0,1-.762-2.812,5.429,5.429,0,0,1,.762-2.812,5.733,5.733,0,0,1,2.051-2.051A5.429,5.429,0,0,1,8.75-17.5a5.429,5.429,0,0,1,2.813.762,5.733,5.733,0,0,1,2.051,2.051,5.429,5.429,0,0,1,.762,2.813,5.429,5.429,0,0,1-.762,2.813,5.733,5.733,0,0,1-2.051,2.051A5.429,5.429,0,0,1,8.75-6.25Zm-.156-9.375H8.555a3.641,3.641,0,0,0-2.441,1.113A3.641,3.641,0,0,0,5-12.07a3.694,3.694,0,0,0,.488,2.012A3.85,3.85,0,0,0,6.934-8.613a3.694,3.694,0,0,0,2.012.488,3.641,3.641,0,0,0,2.441-1.113A3.641,3.641,0,0,0,12.5-11.68a3.694,3.694,0,0,0-.488-2.012,3.85,3.85,0,0,0-1.445-1.445A3.617,3.617,0,0,0,8.594-15.625ZM5.234-3.75a3.229,3.229,0,0,0-2.363,1,3.229,3.229,0,0,0-1,2.363V.625H11.992l-.039.43a7.266,7.266,0,0,0-.078.84,2.854,2.854,0,0,0,.078.605H1.875A1.808,1.808,0,0,1,.547,1.953,1.808,1.808,0,0,1,0,.625V-.391A5.123,5.123,0,0,1,.7-3.008,5.191,5.191,0,0,1,2.617-4.922a5.123,5.123,0,0,1,2.617-.7,4.436,4.436,0,0,1,1.328.273q.547.156.9.234A6.585,6.585,0,0,0,8.75-5a6.585,6.585,0,0,0,1.289-.117q.352-.078.9-.234a4.436,4.436,0,0,1,1.328-.273A5.2,5.2,0,0,1,15.391-4.57L14.023-3.242a3.281,3.281,0,0,0-1.758-.508,3.311,3.311,0,0,0-.781.156,8.57,8.57,0,0,1-2.715.469,8.927,8.927,0,0,1-2.754-.469A3.875,3.875,0,0,0,5.234-3.75Z" transform="translate(0 17.5)"/></svg>